<?xml version="1.0" encoding="UTF-8"?>
<svg id="Layer_2" data-name="Layer 2" xmlns="http://www.w3.org/2000/svg" viewBox="0 0 443.83 199.04">
  <defs>
    <style>
      .cls-1 {
        font-family: Poppins-Black, Poppins;
        font-size: 86.85px;
        font-weight: 800;
        letter-spacing: .15em;
      }

      .cls-1, .cls-2 {
        fill: #24333f;
      }

      .cls-2 {
        stroke-width: 0px;
      }
    </style>
  </defs>
  <g id="Layer_1-2" data-name="Layer 1">
    <text class="cls-1" transform="translate(158.1 74.39)"><tspan x="0" y="0">CODE</tspan></text>
    <path class="cls-2" d="M160.52,139.51c-3.48-13.56-11.02-25.82-21.88-35.66.05-.15.08-.31.12-.47.06-.2.11-.4.16-.61.1-.41.19-.83.27-1.25.04-.19.07-.38.11-.58.08-.49.14-.99.19-1.49.01-.13.03-.26.04-.39.05-.66.08-1.32.08-2,0-.75-.03-1.53-.08-2.32-.72-13.96-7.76-33.41-18.35-50.44-6.08-9.76-22.21-32.46-40.83-32.46-.12,0-.24.01-.35.01-18.48.28-34.45,22.75-40.49,32.45-10.61,17.04-17.64,36.51-18.35,50.48-.05.78-.07,1.54-.07,2.27,0,.67.03,1.33.08,1.97.01.18.04.35.06.52.05.45.1.9.17,1.34.04.24.08.47.13.7.07.38.15.75.24,1.12.06.24.12.47.18.7.04.14.07.29.11.42C11.19,113.71,3.65,125.97.17,139.55c-.03.11-.05.22-.07.33,0,.04-.02.07-.02.11,0,.01,0,.03,0,.04-.02.1-.03.21-.04.32,0,.03,0,.05,0,.08,0,.03,0,.07,0,.1,0,.08-.02.17-.02.25,0,.9.26,1.74.71,2.46,0,0,0,0,0,0,0,0,0,0,0,0,.08.13.17.25.26.37,0,0,0,0,0,0,0,0,0,0,0,0,.61.78,1.46,1.36,2.45,1.62.02,0,.04.02.06.02.02,0,.03,0,.05,0,.13.03.27.06.41.08,0,0,0,0,.01,0,.05,0,.1.02.15.02,0,0,0,0,.01,0,.16.02.31.03.48.03.01,0,.02,0,.03,0h151.46c.39,0,.76-.05,1.12-.14,0,0,.01,0,.02,0,0,0,.02,0,.03,0,1.99-.52,3.46-2.32,3.46-4.47,0-.44-.07-.86-.18-1.26ZM48.76,49.28c11.15-17.12,23.55-28.18,31.6-28.18.04,0,.09,0,.14,0,8.05.13,20.37,11.16,31.45,28.18,11.03,16.93,18.43,36.13,18.43,47.79,0,2.3-.44,4.24-1.34,5.95-.08.13-.21.27-.39.4,0,0,0,0,0,0-.08.06-.17.12-.26.18-.02.01-.04.02-.06.04-.08.05-.17.09-.25.14-.05.03-.11.06-.16.09-.52.26-1.17.53-1.88.77.18-1.16.28-2.34.3-3.54.01-.18.01-.37.01-.55,0-19.38-20.54-29.37-45.88-29.37s-45.88,9.99-45.88,29.37c0,.18,0,.37.01.55.02,1.22.13,2.43.3,3.61-.75-.26-1.46-.53-2.02-.81-.03-.02-.07-.03-.1-.05-.08-.04-.16-.08-.23-.12-.09-.05-.17-.1-.25-.15-.04-.03-.09-.05-.13-.08-.09-.06-.17-.12-.24-.18-.02-.02-.05-.04-.06-.05-.08-.08-.15-.16-.2-.24-.9-1.71-1.34-3.66-1.34-5.96,0-11.65,7.41-30.85,18.43-47.79ZM90.65,89.83c-1.37,0-2.49-1.11-2.49-2.49s1.12-2.49,2.49-2.49h7.7c1.37,0,2.49,1.12,2.49,2.49v18.76c0,1.38-1.12,2.49-2.49,2.49h-7.7c-1.37,0-2.49-1.11-2.49-2.49s1.12-2.49,2.49-2.49h5.21v-13.78h-5.21ZM87.11,83.54l-8.78,27.86c-.33,1.07-1.31,1.74-2.37,1.74-.24,0-.5-.04-.75-.11-1.31-.41-2.04-1.81-1.62-3.12l8.77-27.86c.41-1.31,1.81-2.04,3.12-1.63,1.31.41,2.04,1.81,1.63,3.12ZM70.05,103.61c1.38,0,2.49,1.12,2.49,2.49s-1.11,2.49-2.49,2.49h-7.69c-1.38,0-2.49-1.11-2.49-2.49v-18.76c0-1.37,1.11-2.49,2.49-2.49h7.69c1.38,0,2.49,1.12,2.49,2.49s-1.11,2.49-2.49,2.49h-5.2v13.78h5.2ZM10.9,136.15c3.37-9.24,9.01-17.65,16.57-24.71,1.69,1.05,3.66,1.81,5.68,2.45h0c1.28.39,2.58.74,3.84,1.08.74.2,1.45.39,2.13.58,0,0,.01,0,.02,0,0,0,0,0,.01,0s.01,0,.02,0c12.63,5.29,29.85,3.57,38.06,14.16,1.67,2.15,4.87,2.17,6.61.07,8.39-10.16,25.55-8.96,38.15-14.34,0-.01.01-.02.02-.03.55-.15,1.11-.3,1.69-.46,3-.8,6.22-1.68,8.89-3.17.02-.01.05-.03.07-.04.19-.11.38-.21.57-.32,7.56,7.07,13.2,15.48,16.58,24.72H10.9Z"/>
    <text class="cls-1" transform="translate(162.74 144.59)"><tspan x="0" y="0">LUCK</tspan></text>
  </g>
</svg>